<?xml version="1.0" encoding="UTF-8" standalone="no"?>
<svg
   id="Layer_1"
   data-name="Layer 1"
   viewBox="0 0 250 40"
   version="1.1"
   sodipodi:docname="brand_prototype.svg"
   width="250"
   height="40"
   inkscape:version="1.1 (c68e22c387, 2021-05-23)"
   xmlns:inkscape="http://www.inkscape.org/namespaces/inkscape"
   xmlns:sodipodi="http://sodipodi.sourceforge.net/DTD/sodipodi-0.dtd"
   xmlns="http://www.w3.org/2000/svg"
   xmlns:svg="http://www.w3.org/2000/svg">
  <sodipodi:namedview
     id="namedview65"
     pagecolor="#505050"
     bordercolor="#eeeeee"
     borderopacity="1"
     inkscape:pageshadow="0"
     inkscape:pageopacity="0"
     inkscape:pagecheckerboard="false"
     showgrid="false"
     height="250px"
     inkscape:zoom="4"
     inkscape:cx="142"
     inkscape:cy="31"
     inkscape:window-width="1920"
     inkscape:window-height="1000"
     inkscape:window-x="-11"
     inkscape:window-y="-11"
     inkscape:window-maximized="1"
     inkscape:current-layer="Layer_1" />
  <defs
     id="defs4">
    <style
       id="style2">.cls-1{fill:#8b8e8f;}.cls-2{fill:#3bc9ed;}</style>
  </defs>
  <rect
     style="fill:#ffffff;fill-opacity:1;stroke-width:2.01882"
     id="rect6719"
     width="250.142"
     height="24"
     x="-0.13327371"
     y="16.468405" />
  <path
     id="path6300"
     style="fill:#ffffff;fill-opacity:1;stroke-width:1.14008"
     d="M 236.20772,95.157072 H -9.055818e-4 c -2.1732025182,0 -3.9219803182,1.659749 -3.9219803182,3.719431 v 1.324217 c 0,2.05969 1.7487765,3.71711 3.9219803182,3.71711 H 237.05829 a 8.0327698,7.3380335 0 0 1 -2.7748,-0.63888 1.8544957,1.6941044 0 0 0 -0.45838,-0.16959 0.57087388,0.52150027 0 0 0 -0.28189,0.14171 l -0.19855,-0.0952 1.01236,-2.16057 0.201,0.0906 v 0.0836 a 0.77692895,0.70973411 0 0 0 0.2917,0.53434 3.7360146,3.4128954 0 0 0 1.3825,0.64817 5.8810144,5.3723787 0 0 0 1.76978,0.26717 3.4894243,3.1876319 0 0 0 1.55655,-0.2904 1.5200784,1.3886101 0 0 0 0.56868,-0.42515 1.0133856,0.92574021 0 0 0 0.21327,-0.55756 0.70261404,0.64184652 0 0 0 -0.0344,-0.20444 0.70261404,0.64184652 0 0 0 -0.10292,-0.18121 0.70261404,0.64184652 0 0 0 -0.16178,-0.14404 0.70261404,0.64184652 0 0 0 -0.201,-0.0883 6.3471717,5.7982191 0 0 0 -1.41191,-0.23697 l -1.05893,-0.10686 a 13.217926,12.074737 0 0 1 -1.50751,-0.1905 3.7157472,3.3943807 0 0 1 -0.88001,-0.308985 2.3138971,2.1137734 0 0 1 -0.97803,-0.868874 2.6280466,2.4007528 0 0 1 -0.33827,-1.203414 2.7023615,2.4686404 0 0 1 0.81626,-1.851583 c 0.1779,-0.160462 0.37789,-0.302477 0.60055,-0.422822 0.22266,-0.120346 0.46795,-0.219461 0.73537,-0.299691 0.11973,-0.03593 0.26099,-0.05342 0.38975,-0.08131 z" />
  <path
     id="path6298"
     style="fill:#8b8e8f;stroke-width:1.14008"
     d="m 241.95772,31.032072 c -0.12877,0.02789 -0.26997,0.04538 -0.38975,0.08131 -0.26743,0.08023 -0.51271,0.179345 -0.73538,0.299691 -0.22265,0.120345 -0.42264,0.26236 -0.60054,0.422821 a 2.7023615,2.4686404 0 0 0 -0.81627,1.851584 2.6280466,2.4007528 0 0 0 0.33827,1.203414 2.3138971,2.1137734 0 0 0 0.97804,0.868874 3.7157472,3.3943807 0 0 0 0.88,0.308984 13.217926,12.074737 0 0 0 1.50751,0.190503 l 1.05894,0.106862 a 6.3471717,5.7982191 0 0 1 1.41191,0.236966 0.70261404,0.64184652 0 0 1 0.20099,0.08828 0.70261404,0.64184652 0 0 1 0.16179,0.144037 0.70261404,0.64184652 0 0 1 0.10291,0.181209 0.70261404,0.64184652 0 0 1 0.0344,0.204441 1.0133856,0.92574021 0 0 1 -0.21327,0.557566 1.5200784,1.3886101 0 0 1 -0.56868,0.425145 3.4894243,3.1876319 0 0 1 -1.55654,0.290399 5.8810144,5.3723787 0 0 1 -1.76979,-0.267168 3.7360146,3.4128954 0 0 1 -1.38249,-0.648171 0.77692895,0.70973411 0 0 1 -0.29171,-0.534333 v -0.08363 l -0.20099,-0.0906 -1.01236,2.16057 0.19854,0.09525 a 0.57087388,0.52150027 0 0 1 0.2819,-0.141715 1.8544957,1.6941044 0 0 1 0.45837,0.169593 8.0327698,7.3380335 0 0 0 2.77481,0.638878 h 1.05402 c 2.17322,0 3.92444,-1.657425 3.92444,-3.717108 v -0.05111 a 2.3814562,2.1754894 0 0 0 -0.73046,-0.82241 3.5806292,3.2709485 0 0 0 -1.05158,-0.469286 8.4448802,7.7145011 0 0 0 -1.55409,-0.264844 l -1.0761,-0.102223 a 10.279107,9.3900913 0 0 1 -1.41191,-0.195149 0.76003917,0.6943051 0 0 1 -0.63977,-0.676048 0.89853522,0.82082292 0 0 1 0.25003,-0.559889 1.4795429,1.3515807 0 0 1 0.65692,-0.385651 3.999495,3.6535879 0 0 1 1.28201,-0.169593 4.786558,4.3725793 0 0 1 2.86549,0.801502 c 0.13343,0.08023 0.23276,0.160215 0.29905,0.239289 0.0663,0.07908 0.10053,0.157478 0.10053,0.229995 a 0.76003917,0.6943051 0 0 1 0,0.02555 0.76003917,0.6943051 0 0 1 0,0.02555 0.76003917,0.6943051 0 0 1 0,0.02788 0.76003917,0.6943051 0 0 1 0,0.02555 l 0.19119,0.102224 0.40936,-0.759684 c -0.64028,-1.224749 -1.96997,-2.065318 -3.51508,-2.065318 z" />
  <path
     class="cls-1"
     d="M 21.145533,14.468405 H 7.6337258 v 7.930506 a 1.2228186,1.1170598 0 0 0 0.2499663,0.749853 1.6551964,1.5120423 0 0 0 0.8478656,0.413491 v 0.515331 h -7.292997 v -0.515331 a 1.7599129,1.6077021 0 0 0 0.858,-0.419665 1.2329525,1.1263172 0 0 0 0.2398394,-0.743679 V 3.7421609 A 1.2295744,1.1232314 0 0 0 2.2965607,3.0015703 1.7328893,1.5830157 0 0 0 1.4385607,2.5818998 V 2.0665742 H 8.7416834 V 2.5818998 A 1.5943932,1.4564978 0 0 0 7.8870694,2.9923126 1.2532201,1.1448319 0 0 0 7.6438652,3.7421609 V 10.839502 H 21.155665 V 3.7421609 A 1.2701099,1.1602609 0 0 0 20.915825,2.9923126 1.6214169,1.4811843 0 0 0 20.057826,2.5818998 V 2.0665742 h 7.303131 v 0.5153256 a 1.7328893,1.5830157 0 0 0 -0.857999,0.4196705 1.2295744,1.1232314 0 0 0 -0.23984,0.7405906 V 22.395825 a 1.2329525,1.1263172 0 0 0 0.23984,0.743678 1.7599129,1.6077021 0 0 0 0.857999,0.419665 v 0.515331 h -7.313256 v -0.515331 a 1.6551964,1.5120423 0 0 0 0.847862,-0.413492 1.2228186,1.1170598 0 0 0 0.249965,-0.749851 z"
     id="path6"
     style="stroke-width:0.322857" />
  <path
     class="cls-1"
     d="m 44.433135,1.6808467 q 6.127604,0 9.711611,3.1104878 3.790064,3.2586035 3.790064,8.4149805 a 12.282233,11.219971 0 0 1 -1.817339,5.890791 q -3.550227,5.350776 -11.650556,5.350776 -6.080314,0 -9.657567,-3.110486 A 11.870123,10.843503 0 0 1 31.894175,17.353629 12.812571,11.704441 0 0 1 31.019283,13.048935 12.626785,11.534723 0 0 1 32.819737,7.0038534 Q 36.272,1.7765054 44.433135,1.6808467 Z m 0.01692,3.7399886 q -3.344172,0 -5.577001,1.8669088 -2.641554,2.2094357 -2.641554,5.7827929 0,3.573358 2.641554,5.782789 2.229452,1.85148 5.610778,1.86691 3.38133,0.01544 5.597267,-1.86691 a 8.1070846,7.4059212 0 0 0 2.026776,-2.724762 8.7522733,7.9953094 0 0 0 0.618164,-2.962368 q 0,-3.7369055 -2.641562,-5.8630196 -2.253089,-1.8483946 -5.634422,-1.8823411 z"
     id="path8"
     style="stroke-width:0.322857" />
  <path
     class="cls-1"
     d="m 67.808561,15.141109 v 7.254716 a 1.2228186,1.1170598 0 0 0 0.249967,0.749851 1.6383067,1.4966133 0 0 0 0.847863,0.413492 v 0.515331 H 61.60326 v -0.515331 a 1.7768028,1.6231311 0 0 0 0.858005,-0.419665 1.2329525,1.1263172 0 0 0 0.239838,-0.743678 V 3.7606763 a 1.2633539,1.1540894 0 0 0 -0.239838,-0.759106 1.7464011,1.5953589 0 0 0 -0.858,-0.4196705 V 2.0665742 h 14.606263 a 18.602382,16.993504 0 0 1 4.053548,0.3085795 7.0058723,6.3999501 0 0 1 2.648319,1.1139739 6.0803132,5.5544411 0 0 1 1.851107,2.1600607 7.8908957,7.2084297 0 0 1 0.675595,2.9345937 7.3267774,6.6931015 0 0 1 -1.266738,3.900453 5.9688411,5.4526096 0 0 1 -2.905033,2.039715 q -1.807209,0.617159 -5.050039,0.617159 z m 0,-3.625814 h 7.799695 c 1.55386,0 2.648304,-0.15738 3.276618,-0.469042 a 2.3983461,2.1909184 0 0 0 0.966096,-0.975114 3.6583218,3.341922 0 0 0 0,-2.9345949 2.4152355,2.2063473 0 0 0 -0.966096,-0.9751134 Q 77.955933,5.6954719 75.608256,5.6954719 h -7.799695 z"
     id="path10"
     style="stroke-width:0.322857" />
  <path
     class="cls-1"
     d="M 94.670037,14.415947 V 20.4456 h 15.052143 a 1.1349918,1.036829 0 0 0 0.78707,-0.225266 1.840984,1.6817612 0 0 0 0.44589,-0.80539 h 0.55061 v 5.690219 h -0.55061 a 1.840984,1.6817612 0 0 0 -0.44589,-0.805398 1.1349918,1.036829 0 0 0 -0.78707,-0.225266 H 88.468113 v -0.515331 a 1.763291,1.6107878 0 0 0 0.854633,-0.419665 1.2430863,1.1355746 0 0 0 0.239827,-0.759102 V 3.7606763 A 1.2430863,1.1355746 0 0 0 89.322746,3.0015703 1.7328893,1.5830157 0 0 0 88.468113,2.5818998 V 2.0665742 h 20.845347 a 1.1147241,1.0183141 0 0 0 0.78705,-0.231436 1.7869367,1.6323884 0 0 0 0.4459,-0.7992232 h 0.55061 v 5.6902164 h -0.55061 a 1.7835586,1.6293027 0 0 0 -0.4459,-0.8023065 1.1113462,1.0152284 0 0 0 -0.78705,-0.228353 H 94.670037 v 5.2211741 h 9.495423 a 1.1383698,1.0399147 0 0 0 0.79044,-0.225261 1.840984,1.6817612 0 0 0 0.4459,-0.8053933 h 0.54721 v 5.5544393 h -0.54721 a 1.8781414,1.7157052 0 0 0 -0.4459,-0.799224 1.1079682,1.0121426 0 0 0 -0.79044,-0.234519 z"
     id="path12"
     style="stroke-width:0.322857" />
  <path
     class="cls-1"
     d="m 136.91471,3.9303964 -2.79358,5.181057 -0.47966,-0.2561227 c 0,-0.1080043 0,-0.1944042 0,-0.2592044 0,-0.3641238 -0.33778,-0.759109 -0.99647,-1.1756927 a 11.964706,10.929905 0 0 0 -7.16466,-1.9995983 10.268974,9.3808337 0 0 0 -3.2057,0.4165838 3.8170856,3.4869546 0 0 0 -1.63829,0.9689435 2.2699837,2.073658 0 0 0 -0.62492,1.4009547 c 0,0.8269916 0.53036,1.3886091 1.59439,1.6910152 a 24.42597,22.313424 0 0 0 3.52995,0.4813855 l 2.70236,0.25921 a 21.348658,19.502259 0 0 1 3.88464,0.660359 8.9650846,8.189714 0 0 1 2.63144,1.17569 5.9789749,5.4618667 0 0 1 1.84098,2.076743 6.8707539,6.2765183 0 0 1 0.67558,2.755621 6.9889827,6.3845214 0 0 1 -1.59436,4.125713 q -1.42213,1.644736 -4.46228,2.431616 a 17.393074,15.888787 0 0 1 -4.85073,0.595561 20.075169,18.338912 0 0 1 -9.17116,-2.095266 4.7730459,4.3602361 0 0 0 -1.14849,-0.419666 1.4086059,1.2867789 0 0 0 -0.70262,0.354866 l -0.49996,-0.240689 2.52335,-5.403238 0.49655,0.228349 v 0.206745 a 1.9558341,1.7866786 0 0 0 0.73639,1.33924 q 1.11472,0.92574 3.44551,1.613873 a 14.636665,13.370775 0 0 0 4.44203,0.675791 8.7421397,7.9860514 0 0 0 3.89477,-0.725161 3.8001961,3.4715256 0 0 0 1.42212,-1.067689 2.5604875,2.3390368 0 0 0 0.53034,-1.39478 q 0,-1.092376 -1.24985,-1.558331 -0.87825,-0.308579 -3.53335,-0.59556 l -2.63818,-0.259207 a 35.259064,32.209586 0 0 1 -3.75627,-0.490641 9.6541866,8.8192177 0 0 1 -2.19228,-0.749849 5.7729198,5.2736333 0 0 1 -2.45242,-2.178576 6.5937621,6.0234823 0 0 1 -0.80732,-3.0024847 6.7559035,6.1716008 0 0 1 2.02677,-4.6132729 q 2.67536,-2.4069256 8.02264,-2.4038377 a 17.686958,16.157252 0 0 1 4.19205,0.4443555 30.962305,28.284448 0 0 1 4.83384,1.5768461 5.1074633,4.6657303 0 0 0 1.21605,0.3733784 1.3917162,1.2713498 0 0 0 0.84111,-0.3733784 z"
     id="path14"
     style="stroke-width:0.322857" />
  <path
     class="cls-1"
     d="M 153.37208,5.6954719 V 22.380401 a 1.2633539,1.1540894 0 0 0 0.23974,0.759102 1.7599129,1.6077021 0 0 0 0.85799,0.419665 v 0.515331 h -7.30302 v -0.515331 a 1.7768028,1.6231311 0 0 0 0.87489,-0.419665 1.2633539,1.1540894 0 0 0 0.23973,-0.759102 V 5.6954719 h -7.28626 a 1.1518816,1.052258 0 0 0 -0.79044,0.2190941 1.820716,1.6632465 0 0 0 -0.44587,0.8115654 H 139.2116 V 1.035915 h 0.54724 a 1.9558341,1.7866786 0 0 0 0.45598,0.8084809 1.1147241,1.0183141 0 0 0 0.78033,0.2221783 h 19.62927 a 1.1721493,1.0707727 0 0 0 0.80397,-0.2221783 1.749779,1.5984446 0 0 0 0.44588,-0.8084809 h 0.55059 v 5.6902164 h -0.5337 a 1.763291,1.6107878 0 0 0 -0.4459,-0.8115654 1.1721493,1.0707727 0 0 0 -0.80392,-0.2190941 z"
     id="path16"
     style="stroke-width:0.322857" />
  <path
     class="cls-1"
     d="m 177.38258,1.6808467 q 6.1208,0 9.70821,3.1104878 3.79009,3.2586035 3.79346,8.4149805 a 12.255209,11.195284 0 0 1 -1.82076,5.890791 q -3.55017,5.363125 -11.63363,5.363125 -6.08031,0 -9.65757,-3.110493 a 11.870123,10.843503 0 0 1 -2.91518,-3.983769 12.812571,11.704441 0 0 1 -0.87489,-4.304689 12.596383,11.50695 0 0 1 1.80047,-6.0450846 q 3.43198,-5.23969 11.59989,-5.3353487 z m 0,3.7399886 q -3.35094,0 -5.57702,1.8669088 -2.64492,2.206349 -2.64492,5.7827929 0,3.576444 2.64492,5.782789 2.22944,1.85148 5.61079,1.86691 3.38133,0.01544 5.59389,-1.86691 a 8.0699273,7.3719768 0 0 0 2.02675,-2.724762 8.7522733,7.9953094 0 0 0 0.6182,-2.962368 q 0,-3.7369055 -2.64495,-5.8630196 -2.22607,-1.8483946 -5.61077,-1.8823411 z"
     id="path18"
     style="stroke-width:0.322857" />
  <path
     class="cls-1"
     d="M 200.32898,9.0003657 V 22.380401 a 1.2633539,1.1540894 0 0 0 0.23973,0.759102 1.7599129,1.6077021 0 0 0 0.85803,0.419665 v 0.515331 h -6.87414 v -0.515331 a 1.763291,1.6107878 0 0 0 0.85462,-0.419665 1.2430863,1.1355746 0 0 0 0.23974,-0.759102 V 3.7421609 A 1.2093068,1.1047166 0 0 0 195.40722,3.0015703 1.7328893,1.5830157 0 0 0 194.5526,2.5818998 V 2.0665742 h 7.95169 v 0.5153256 c -0.48977,0.1203488 -0.73637,0.3672123 -0.73637,0.7405943 A 1.4592751,1.3330658 0 0 0 202.24756,4.17726 L 215.1581,16.801268 V 3.7421609 A 1.2295744,1.1232314 0 0 0 214.91838,3.0015703 1.7464011,1.5953589 0 0 0 214.06039,2.5818998 V 2.0665742 h 6.87412 v 0.5153256 a 1.7464011,1.5953589 0 0 0 -0.85799,0.4196705 1.2295744,1.1232314 0 0 0 -0.23974,0.7405906 V 22.380401 a 1.2633539,1.1540894 0 0 0 0.23974,0.759102 1.7768028,1.6231311 0 0 0 0.85799,0.419665 v 0.515331 h -7.36057 v -0.515331 q 0.71952,-0.148117 0.71952,-0.694301 0,-0.324007 -0.84111,-1.129404 z"
     id="path20"
     style="stroke-width:0.322857" />
  <path
     class="cls-1"
     d="M 231.35887,14.415947 V 20.4456 H 246.411 a 1.1349918,1.036829 0 0 0 0.7871,-0.225266 1.840984,1.6817612 0 0 0 0.44587,-0.80539 h 0.55061 v 5.690219 h -0.55061 a 1.840984,1.6817612 0 0 0 -0.44587,-0.805398 1.1349918,1.036829 0 0 0 -0.7871,-0.225266 h -21.25742 v -0.515331 a 1.7464011,1.5953589 0 0 0 0.8546,-0.419665 1.2430863,1.1355746 0 0 0 0.24324,-0.759102 V 3.7606763 a 1.2430863,1.1355746 0 0 0 -0.24324,-0.759106 1.7193776,1.5706725 0 0 0 -0.8546,-0.4196705 V 2.0665742 h 20.8487 a 1.1282359,1.0306574 0 0 0 0.79045,-0.231436 1.8139602,1.6570749 0 0 0 0.44252,-0.7992232 h 0.55061 v 5.6902164 h -0.55061 a 1.8139602,1.6570749 0 0 0 -0.44252,-0.8023065 1.1282359,1.0306574 0 0 0 -0.79045,-0.228353 h -14.64341 v 5.2211741 h 9.49878 a 1.1349918,1.036829 0 0 0 0.78707,-0.225261 1.840984,1.6817612 0 0 0 0.44591,-0.8053933 h 0.5337 v 5.5544393 h -0.54722 a 1.8781414,1.7157052 0 0 0 -0.4459,-0.799224 1.1045903,1.0090568 0 0 0 -0.78707,-0.234519 z"
     id="path22"
     style="stroke-width:0.322857" />
  <path
     class="cls-2"
     d="m 10.559034,36.818861 1.303887,1.832967 -0.179016,0.117258 A 0.52358256,0.47829909 0 0 0 11.369745,38.60245 2.3645663,2.1600605 0 0 0 10.694149,38.911026 9.3771945,8.5661822 0 0 1 8.7079167,39.775057 6.6782113,6.1006275 0 0 1 6.78924,39.997235 5.837101,5.3322634 0 0 1 3.1275373,39.012861 4.5669911,4.1720024 0 0 1 1.8101372,37.584136 5.0263925,4.5916713 0 0 1 1.2561541,35.424077 4.8541169,4.4342955 0 0 1 2.249276,32.646851 q 1.4964282,-1.774327 4.5196989,-1.774327 a 6.6984783,6.1191423 0 0 1 1.9085398,0.219085 9.6575648,8.8223038 0 0 1 1.9896113,0.867109 2.4726609,2.258806 0 0 0 0.67559,0.308583 0.51682664,0.47212748 0 0 0 0.314157,-0.169716 l 0.179016,0.117259 -1.303896,1.851476 -0.182401,-0.117258 c 0,-0.0679 0,-0.126518 0,-0.172802 a 0.54385027,0.49681388 0 0 0 -0.172283,-0.348698 2.813834,2.5704719 0 0 0 -0.6114124,-0.394979 5.0365264,4.6009285 0 0 0 -2.5706215,-0.644932 3.7765503,3.449925 0 0 0 -2.5604884,0.756014 3.3948419,3.1012296 0 0 0 0,4.628702 3.7731722,3.4468392 0 0 0 2.5604884,0.75294 5.006125,4.5731566 0 0 0 2.5706215,-0.644938 2.9354404,2.6815607 0 0 0 0.6114124,-0.39498 0.55736207,0.50915709 0 0 0 0.172283,-0.351785 c 0,-0.04937 0,-0.104912 0,-0.169715 z"
     id="path24"
     style="stroke-width:0.322857" />
  <path
     class="cls-2"
     d="m 19.95987,30.881778 q 2.452393,0 3.884647,1.234318 a 4.8203373,4.4034372 0 0 1 1.516702,3.366614 4.918298,4.4929254 0 0 1 -0.726262,2.360633 q -1.422114,2.141542 -4.661569,2.141542 -2.432129,0 -3.864381,-1.234318 a 4.7291328,4.320121 0 0 1 -1.165393,-1.595357 5.2324473,4.7799048 0 0 1 0.3682,-4.141144 q 1.384959,-2.092173 4.648056,-2.132288 z m 0,1.496613 a 3.1820308,2.9068241 0 0 0 -2.232822,0.749852 3.5603612,3.2524338 0 0 0 0,4.628696 3.4860464,3.1845462 0 0 0 4.48592,0 3.2529677,2.971626 0 0 0 0.810708,-1.089289 3.567117,3.2586054 0 0 0 0.246599,-1.18494 3.2597239,2.9777975 0 0 0 -1.057296,-2.35138 3.3137706,3.0271704 0 0 0 -2.246337,-0.765283 z"
     id="path26"
     style="stroke-width:0.322857" />
  <path
     class="cls-2"
     d="m 30.955106,33.810202 v 5.344608 a 0.49655894,0.45361267 0 0 0 0.0946,0.308576 0.70936991,0.64801809 0 0 0 0.337798,0.166635 v 0.206747 h -2.753035 v -0.206747 a 0.70936991,0.64801809 0 0 0 0.337794,-0.166635 0.49655894,0.45361267 0 0 0 0.09455,-0.308576 v -7.446044 a 0.48304715,0.44126949 0 0 0 -0.09455,-0.308575 0.67559035,0.61716008 0 0 0 -0.337794,-0.169715 v -0.206748 h 3.205674 v 0.206748 c -0.199299,0.04938 -0.297264,0.148117 -0.297264,0.308576 a 0.57425183,0.5245861 0 0 0 0.192539,0.339437 l 5.164891,5.051454 v -5.221177 a 0.48304715,0.44126949 0 0 0 -0.09455,-0.308575 0.67559035,0.61716008 0 0 0 -0.337796,-0.169715 v -0.206748 h 2.753032 v 0.206748 a 0.67559035,0.61716008 0 0 0 -0.337796,0.169715 0.48304715,0.44126949 0 0 0 -0.0946,0.308575 v 7.446044 a 0.49655894,0.45361267 0 0 0 0.0946,0.308576 0.70936991,0.64801809 0 0 0 0.337796,0.166635 v 0.206747 h -2.948974 v -0.206747 c 0.189171,-0.03699 0.287127,-0.129601 0.287127,-0.277718 0,-0.08331 -0.111472,-0.234527 -0.337795,-0.450531 z"
     id="path28"
     style="stroke-width:0.322857" />
  <path
     class="cls-2"
     d="m 51.411987,31.782829 -1.118102,2.073662 -0.192541,-0.101831 c 0,-0.04318 0,-0.07714 0,-0.104911 0,-0.145037 -0.131743,-0.308582 -0.3986,-0.469041 a 4.7899358,4.3756652 0 0 0 -2.867876,-0.80231 3.9927392,3.6474161 0 0 0 -1.280249,0.169721 1.4795429,1.3515807 0 0 0 -0.655321,0.385725 0.89853522,0.82082292 0 0 0 -0.249965,0.561614 0.76003917,0.6943051 0 0 0 0.63506,0.675791 10.360179,9.4641504 0 0 0 1.415357,0.194406 l 1.077567,0.101831 a 8.4448802,7.7145011 0 0 1 1.553856,0.265374 3.5806292,3.2709485 0 0 1 1.050544,0.469042 2.4118577,2.2032616 0 0 1 0.739771,0.83317 2.7631648,2.5241849 0 0 1 0.27024,1.101625 2.8003219,2.5581286 0 0 1 -0.638433,1.650901 3.4015977,3.1074011 0 0 1 -1.790315,0.972031 6.9214238,6.3228053 0 0 1 -1.942321,0.23761 8.0327698,7.3380335 0 0 1 -3.661702,-0.842425 1.8544957,1.6941044 0 0 0 -0.459403,-0.169722 0.59114159,0.54001511 0 0 0 -0.283746,0.14195 l -0.195934,-0.09566 1.013381,-2.160058 0.1993,0.08948 v 0.08331 a 0.77692895,0.70973411 0 0 0 0.293881,0.533842 3.7157472,3.3943807 0 0 0 1.381584,0.648019 5.8742587,5.3662073 0 0 0 1.766668,0.268468 3.4691566,3.1691171 0 0 0 1.557235,-0.290066 1.5031885,1.3731812 0 0 0 0.570875,-0.42584 1.0133856,0.92574021 0 0 0 0.212822,-0.558527 0.70261404,0.64184652 0 0 0 -0.499936,-0.617166 6.3471717,5.7982191 0 0 0 -1.415361,-0.237608 L 46.446402,36.260331 A 13.217926,12.074737 0 0 1 44.943215,36.062832 3.7157472,3.3943807 0 0 1 44.064944,35.754255 2.3138971,2.1137734 0 0 1 43.085338,34.884058 2.6280466,2.4007528 0 0 1 42.747547,33.6806 2.7023615,2.4686404 0 0 1 43.565008,31.829115 q 1.070811,-0.962769 3.20905,-0.962769 a 7.0936991,6.4801809 0 0 1 1.688979,0.172802 12.08969,11.04408 0 0 1 1.932189,0.617159 2.0909523,1.9101105 0 0 0 0.4898,0.148123 0.56074001,0.51224289 0 0 0 0.337799,-0.148123 z"
     id="path30"
     style="stroke-width:0.322857" />
  <path
     class="cls-2"
     d="m 59.809569,32.489479 v 6.665331 a 0.49655894,0.45361267 0 0 0 0.0946,0.308576 0.70936991,0.64801809 0 0 0 0.337793,0.166635 v 0.206747 h -2.921938 v -0.206747 a 0.69585809,0.63567491 0 0 0 0.337795,-0.166635 0.49655894,0.45361267 0 0 0 0.09797,-0.308576 v -6.665331 h -2.908416 a 0.45264556,0.41349728 0 0 0 -0.317529,0.08948 0.71950373,0.65727553 0 0 0 -0.175649,0.308583 H 54.134641 V 30.61023 h 0.219557 a 0.78368483,0.71590572 0 0 0 0.179016,0.308574 0.45264556,0.41349728 0 0 0 0.314149,0.0864 h 7.853739 a 0.46615738,0.42584046 0 0 0 0.320909,-0.0864 0.72288167,0.66036131 0 0 0 0.179054,-0.308574 h 0.219555 v 2.277316 h -0.219555 a 0.67559035,0.61716008 0 0 0 -0.179054,-0.308583 0.45264556,0.41349728 0 0 0 -0.320909,-0.08948 z"
     id="path32"
     style="stroke-width:0.322857" />
  <path
     class="cls-2"
     d="m 68.659807,36.251072 v 2.922255 a 0.48304715,0.44126949 0 0 0 0.101332,0.308577 0.63505498,0.5801305 0 0 0 0.337794,0.163547 v 0.206748 h -2.921925 v -0.206748 a 0.70936991,0.64801809 0 0 0 0.337796,-0.166635 0.49993689,0.4566985 0 0 0 0.0946,-0.308576 v -7.455298 a 0.51682664,0.47212748 0 0 0 -0.0946,-0.308577 0.67559035,0.61716008 0 0 0 -0.337796,-0.16972 v -0.206749 h 5.860743 a 8.9752184,8.1989721 0 0 1 1.688985,0.117259 2.9421962,2.6877323 0 0 1 1.094445,0.407322 2.1990467,2.0088561 0 0 1 0.807338,0.925742 3.3272825,3.0395136 0 0 1 0.256728,1.184942 q 0,2.160066 -2.546984,2.524188 l 1.817349,2.431607 a 5.8202113,5.3168342 0 0 0 0.702607,0.820828 0.86813366,0.79305073 0 0 0 0.547214,0.203662 v 0.206748 h -3.377939 v -0.206748 c 0.233081,-0.03394 0.337797,-0.111097 0.337797,-0.231435 a 1.8173381,1.6601606 0 0 0 -0.337797,-0.561614 l -1.895029,-2.592075 z m 0,-1.453416 h 3.155009 a 8.2050452,7.4954096 0 0 0 0.989729,-0.03699 1.5910154,1.453412 0 0 0 0.526962,-0.160467 1.3106454,1.1972907 0 0 0 0,-1.910108 1.4660311,1.3392374 0 0 0 -0.523567,-0.166634 9.0968246,8.3100607 0 0 0 -0.993124,-0.03394 h -3.155009 z"
     id="path34"
     style="stroke-width:0.322857" />
  <path
     class="cls-2"
     d="m 88.755235,31.714942 v 4.937285 c 0,0.925735 -0.185787,1.632385 -0.550611,2.09834 q -0.986347,1.249748 -4.080561,1.249748 -2.23282,0 -3.42187,-0.675783 a 2.2564719,2.0613148 0 0 1 -0.9627,-1.070778 5.2966285,4.8385355 0 0 1 -0.260123,-1.601527 v -4.937285 a 0.49655894,0.45361267 0 0 0 -0.09462,-0.308577 0.67559035,0.61716008 0 0 0 -0.337797,-0.16972 v -0.206749 h 2.921935 v 0.206749 a 0.67559035,0.61716008 0 0 0 -0.337797,0.166633 0.51344871,0.4690417 0 0 0 -0.09794,0.308576 v 4.394182 a 6.0600457,5.5359259 0 0 0 0.09115,1.126316 1.398472,1.2775214 0 0 0 0.337797,0.617159 q 0.658692,0.657281 2.249706,0.657281 c 1.067431,0 1.817334,-0.219092 2.256482,-0.657281 a 1.4558973,1.32998 0 0 0 0.337782,-0.617159 6.380951,5.8290772 0 0 0 0.08798,-1.126316 v -4.391094 a 0.49655894,0.45361267 0 0 0 -0.09477,-0.308577 0.67559035,0.61716008 0 0 0 -0.337782,-0.16972 v -0.206749 h 2.759781 v 0.206749 a 0.67559035,0.61716008 0 0 0 -0.337796,0.16972 0.49655894,0.45361267 0 0 0 -0.128274,0.308577 z"
     id="path36"
     style="stroke-width:0.322857" />
  <path
     class="cls-2"
     d="m 101.57796,36.818861 1.3005,1.832967 -0.17567,0.117258 a 0.53033846,0.4844707 0 0 0 -0.31753,-0.166633 2.3645663,2.1600605 0 0 0 -0.67558,0.308576 9.3771945,8.5661822 0 0 1 -1.98625,0.86403 6.6680775,6.0913705 0 0 1 -1.915282,0.222179 5.8472349,5.3415204 0 0 1 -3.638054,-0.984375 4.5669911,4.1720024 0 0 1 -1.317409,-1.428724 5.0263925,4.5916713 0 0 1 -0.553963,-2.16006 4.8541169,4.4342955 0 0 1 0.993112,-2.777225 q 1.493038,-1.774327 4.523054,-1.774327 a 6.6917226,6.1129707 0 0 1 1.905178,0.219084 9.5764941,8.7482446 0 0 1 1.989614,0.867109 2.4726609,2.258806 0 0 0 0.67558,0.308583 0.52020462,0.47521326 0 0 0 0.31753,-0.169715 l 0.17567,0.117258 -1.3005,1.851477 -0.18577,-0.117259 c 0,-0.0679 0,-0.126518 0,-0.172802 a 0.54385027,0.49681388 0 0 0 -0.17236,-0.348698 2.813834,2.5704719 0 0 0 -0.61141,-0.394979 5.0365264,4.6009285 0 0 0 -2.560498,-0.666536 3.7765503,3.449925 0 0 0 -2.560482,0.75602 3.3948419,3.1012296 0 0 0 0,4.628703 3.7731722,3.4468392 0 0 0 2.560482,0.752933 5.006125,4.5731566 0 0 0 2.570638,-0.644932 2.9354404,2.6815607 0 0 0 0.61139,-0.394979 0.55736207,0.50915709 0 0 0 0.17218,-0.351786 c 0,-0.04938 0,-0.104912 0,-0.169713 z"
     id="path38"
     style="stroke-width:0.322857" />
  <path
     class="cls-2"
     d="m 111.01593,32.489479 v 6.665331 a 0.49655894,0.45361267 0 0 0 0.0978,0.308576 0.71274786,0.65110388 0 0 0 0.33779,0.166635 v 0.206747 h -2.93208 v -0.206747 a 0.70936991,0.64801809 0 0 0 0.33779,-0.166635 0.49655894,0.45361267 0 0 0 0.0946,-0.308576 v -6.665331 h -2.90843 a 0.44251172,0.40423985 0 0 0 -0.31416,0.08948 0.67559035,0.61716008 0 0 0 -0.17896,0.308583 h -0.21959 V 30.61023 h 0.21959 a 0.81746438,0.74676372 0 0 0 0.18246,0.308574 0.44926759,0.41041149 0 0 0 0.31076,0.0864 h 7.88077 a 0.48304715,0.44126949 0 0 0 0.3378,-0.0864 0.78368483,0.71590572 0 0 0 0.17898,-0.308574 h 0.21955 v 2.277316 h -0.21955 a 0.74652737,0.68196193 0 0 0 -0.17898,-0.308583 0.46615738,0.42584046 0 0 0 -0.3378,-0.08948 z"
     id="path40"
     style="stroke-width:0.322857" />
  <path
     class="cls-2"
     d="m 117.82252,39.15481 v -7.446044 a 0.48304715,0.44126949 0 0 0 -0.0945,-0.308575 0.67559035,0.61716008 0 0 0 -0.33781,-0.169715 v -0.206748 h 2.92195 v 0.206748 a 0.67559035,0.61716008 0 0 0 -0.33782,0.166635 0.49993689,0.4566985 0 0 0 -0.0978,0.308575 v 7.449124 a 0.49318097,0.45052686 0 0 0 0.10141,0.308576 0.64856675,0.59247368 0 0 0 0.33779,0.163554 v 0.206741 h -2.92192 V 39.62694 a 0.70936991,0.64801809 0 0 0 0.33782,-0.166641 0.49655894,0.45361267 0 0 0 0.091,-0.305489 z"
     id="path42"
     style="stroke-width:0.322857" />
  <path
     class="cls-2"
     d="m 128.9495,30.881778 q 2.44562,0 3.88464,1.234318 a 4.8304715,4.4126949 0 0 1 1.51671,3.366614 4.8878963,4.4651535 0 0 1 -0.72965,2.360633 q -1.41872,2.141542 -4.65818,2.141542 -2.43215,0 -3.8644,-1.234318 a 4.7764239,4.3633221 0 0 1 -1.16875,-1.595357 5.1311088,4.6873314 0 0 1 -0.33781,-1.721878 5.0669281,4.6287008 0 0 1 0.72288,-2.419266 q 1.3647,-2.092173 4.63456,-2.132288 z m 0,1.496613 a 3.1685189,2.8944809 0 0 0 -2.23286,0.749852 3.5603612,3.2524338 0 0 0 0,4.628696 3.1887865,2.9129957 0 0 0 2.24638,0.746765 3.1279835,2.8574513 0 0 0 3.04014,-1.851477 3.4961801,3.1938036 0 0 0 0.24645,-1.184948 3.2597239,2.9777975 0 0 0 -1.05726,-2.351386 3.3002591,3.0148271 0 0 0 -2.2362,-0.749846 z"
     id="path44"
     style="stroke-width:0.322857" />
  <path
     class="cls-2"
     d="m 139.93458,33.810202 v 5.344608 a 0.49655894,0.45361267 0 0 0 0.0979,0.308576 0.71274786,0.65110388 0 0 0 0.33779,0.166635 v 0.206747 h -2.74965 v -0.206747 a 0.69585809,0.63567491 0 0 0 0.3378,-0.166635 0.49655894,0.45361267 0 0 0 0.0978,-0.308576 v -7.446044 a 0.48304715,0.44126949 0 0 0 -0.0978,-0.308575 0.67559035,0.61716008 0 0 0 -0.3378,-0.169715 v -0.206748 h 3.18203 v 0.206748 c -0.19583,0.04938 -0.29389,0.148117 -0.29389,0.308576 a 0.57425183,0.5245861 0 0 0 0.19259,0.339437 l 5.16487,5.051454 v -5.221177 a 0.48304715,0.44126949 0 0 0 -0.0976,-0.308575 0.65532264,0.59864529 0 0 0 -0.33779,-0.169715 v -0.206748 h 2.74963 v 0.206748 a 0.67559035,0.61716008 0 0 0 -0.33778,0.169715 0.48304715,0.44126949 0 0 0 -0.0976,0.308575 v 7.446044 a 0.49655894,0.45361267 0 0 0 0.0976,0.308576 0.71274786,0.65110388 0 0 0 0.33778,0.166635 v 0.206747 h -2.94215 v -0.206747 c 0.19258,-0.03699 0.2871,-0.129601 0.2871,-0.277718 0,-0.08331 -0.11157,-0.234527 -0.33778,-0.450531 z"
     id="path46"
     style="stroke-width:0.322857" />
  <path
     class="cls-2"
     d="m 165.72526,31.782829 -1.13161,2.073662 -0.19259,-0.101831 c 0,-0.04318 0,-0.07714 0,-0.104911 0,-0.145037 -0.13175,-0.308582 -0.39859,-0.469041 a 4.7899358,4.3756652 0 0 0 -2.86788,-0.80231 3.9927392,3.6474161 0 0 0 -1.28025,0.169721 1.4795429,1.3515807 0 0 0 -0.65533,0.385725 0.90191315,0.8239087 0 0 0 -0.25348,0.561614 0.76003917,0.6943051 0 0 0 0.63844,0.675791 10.360179,9.4641504 0 0 0 1.41535,0.194406 l 1.0742,0.101831 a 8.3773208,7.6527856 0 0 1 1.55385,0.265374 3.6008969,3.2894633 0 0 1 1.05393,0.469042 2.3645663,2.1600605 0 0 1 0.73638,0.83317 2.7192511,2.4840694 0 0 1 0.27362,1.101625 2.8003219,2.5581286 0 0 1 -0.63841,1.650901 3.4151095,3.1197443 0 0 1 -1.79033,0.972031 6.9214238,6.3228053 0 0 1 -1.94233,0.23761 8.0327698,7.3380335 0 0 1 -3.64817,-0.842425 1.9085428,1.7434774 0 0 0 -0.45941,-0.169722 0.59114159,0.54001511 0 0 0 -0.28373,0.14195 l -0.19934,-0.09566 1.01339,-2.160058 0.19934,0.08948 v 0.08331 a 0.77692895,0.70973411 0 0 0 0.29387,0.533842 3.7157472,3.3943807 0 0 0 1.3782,0.648019 5.8979041,5.3878079 0 0 0 1.77005,0.268468 3.4792904,3.1783746 0 0 0 1.55724,-0.290066 1.5031885,1.3731812 0 0 0 0.57088,-0.42584 1.0133856,0.92574021 0 0 0 0.21279,-0.558527 0.70599197,0.6449323 0 0 0 -0.49994,-0.617166 6.3471717,5.7982191 0 0 0 -1.41538,-0.237608 l -1.0573,-0.104912 a 13.126721,11.991421 0 0 1 -1.4998,-0.197492 3.6616999,3.3450078 0 0 1 -0.87826,-0.308577 2.3409209,2.1384597 0 0 1 -0.983,-0.870197 2.6618261,2.4316108 0 0 1 -0.33779,-1.203458 2.7023615,2.4686404 0 0 1 0.81746,-1.851485 q 1.07081,-0.962769 3.20905,-0.962769 a 7.1274786,6.5110388 0 0 1 1.689,0.172802 12.207918,11.152083 0 0 1 1.93218,0.617159 2.1416215,1.9563975 0 0 0 0.48642,0.148123 0.56074001,0.51224289 0 0 0 0.3378,-0.148123 z"
     id="path48"
     style="stroke-width:0.322857" />
  <path
     class="cls-2"
     d="m 171.42727,35.979524 v 2.413091 h 6.02286 a 0.45940145,0.41966887 0 0 0 0.31412,-0.08948 0.74990535,0.68504776 0 0 0 0.17917,-0.308583 h 0.21953 v 2.277324 h -0.21953 a 0.74990535,0.68504776 0 0 0 -0.17917,-0.324013 0.45940145,0.41966887 0 0 0 -0.31412,-0.0895 h -8.50568 v -0.206741 a 0.71274786,0.65110388 0 0 0 0.33778,-0.166635 0.49655894,0.45361267 0 0 0 0.0976,-0.308583 v -7.461465 a 0.49655894,0.45361267 0 0 0 -0.0976,-0.308577 0.67559035,0.61716008 0 0 0 -0.33778,-0.169721 v -0.206748 h 8.34016 a 0.43913377,0.40115407 0 0 0 0.31415,-0.0895 0.72288167,0.66036131 0 0 0 0.17916,-0.308576 h 0.21954 v 2.277324 h -0.22977 a 0.69248016,0.63258912 0 0 0 -0.17916,-0.308583 0.43913377,0.40115407 0 0 0 -0.31417,-0.09258 h -5.84722 v 2.089085 h 3.80016 a 0.44251172,0.40423985 0 0 0 0.31418,-0.0895 0.73301557,0.66961865 0 0 0 0.17917,-0.308576 h 0.21953 v 2.227946 h -0.21953 a 0.75328329,0.68813349 0 0 0 -0.17917,-0.308583 0.44588964,0.40732569 0 0 0 -0.31418,-0.09258 z"
     id="path50"
     style="stroke-width:0.322857" />
  <path
     class="cls-2"
     d="m 183.91216,36.251072 v 2.922255 a 0.48304715,0.44126949 0 0 0 0.1014,0.308577 0.63505498,0.5801305 0 0 0 0.33781,0.163547 v 0.206748 h -2.92191 v -0.206748 a 0.70936991,0.64801809 0 0 0 0.33778,-0.166635 0.49993689,0.4566985 0 0 0 0.0945,-0.308576 v -7.455298 a 0.51682664,0.47212748 0 0 0 -0.0945,-0.308577 0.67559035,0.61716008 0 0 0 -0.33778,-0.16972 v -0.206749 h 5.85734 a 8.9752184,8.1989721 0 0 1 1.68899,0.117259 2.9421962,2.6877323 0 0 1 1.09445,0.407322 2.1990467,2.0088561 0 0 1 0.80735,0.925742 3.2698574,2.9870549 0 0 1 0.2567,1.184942 q 0,2.160066 -2.54698,2.524188 l 1.81732,2.431607 a 5.8202113,5.3168342 0 0 0 0.70262,0.820828 0.86813366,0.79305073 0 0 0 0.54721,0.203662 v 0.206748 h -3.37794 v -0.206748 c 0.233,-0.03394 0.33781,-0.111097 0.33781,-0.231435 a 1.8477397,1.6879329 0 0 0 -0.32093,-0.561614 l -1.8984,-2.592075 z m 0,-1.453416 h 3.15501 a 8.2050452,7.4954096 0 0 0 0.98971,-0.03699 1.5910154,1.453412 0 0 0 0.52698,-0.160467 1.3106454,1.1972907 0 0 0 0,-1.910108 1.4660311,1.3392374 0 0 0 -0.52358,-0.166634 9.0968246,8.3100607 0 0 0 -0.99311,-0.03394 h -3.15501 z"
     id="path52"
     style="stroke-width:0.322857" />
  <path
     class="cls-2"
     d="m 198.87309,37.284816 2.48282,-5.16872 a 1.5572358,1.4225541 0 0 0 0.15874,-0.512244 c 0,-0.182057 -0.15194,-0.308575 -0.45266,-0.361034 v -0.206755 h 3.20567 v 0.206755 a 0.67559035,0.61716008 0 0 0 -0.41883,0.163547 4.1616368,3.8017062 0 0 0 -0.40537,0.709731 l -3.2462,6.585102 a 2.0031255,1.8298797 0 0 0 -0.20606,0.549271 c 0,0.219092 0.14517,0.348698 0.43237,0.385725 v 0.206749 h -3.22593 v -0.206749 c 0.28709,-0.03699 0.43236,-0.16972 0.43236,-0.3919 a 2.0267711,1.8514803 0 0 0 -0.20606,-0.543096 l -3.24622,-6.585102 a 4.1616368,3.8017062 0 0 0 -0.40537,-0.709731 0.67559035,0.61716008 0 0 0 -0.41886,-0.163547 v -0.206755 h 3.33068 v 0.206755 c -0.30403,0.05556 -0.45265,0.178977 -0.45265,0.361034 a 1.5369681,1.4040392 0 0 0 0.15543,0.512244 z"
     id="path54"
     style="stroke-width:0.322857" />
  <path
     class="cls-2"
     d="m 207.31458,39.15481 v -7.446044 a 0.48304715,0.44126949 0 0 0 -0.0978,-0.308575 0.65532264,0.59864529 0 0 0 -0.33777,-0.169715 v -0.206748 h 2.9219 v 0.206748 a 0.63167697,0.57704467 0 0 0 -0.33777,0.166635 0.49993689,0.4566985 0 0 0 -0.0976,0.308575 v 7.449124 a 0.49318097,0.45052686 0 0 0 0.10141,0.308576 0.63505498,0.5801305 0 0 0 0.33779,0.163554 v 0.206741 H 206.8828 V 39.62694 a 0.67559035,0.61716008 0 0 0 0.3378,-0.166641 0.49655894,0.45361267 0 0 0 0.0945,-0.305489 z"
     id="path56"
     style="stroke-width:0.322857" />
  <path
     class="cls-2"
     d="m 222.35665,36.818861 1.30386,1.832967 -0.17916,0.117258 a 0.53371641,0.48755649 0 0 0 -0.31414,-0.166633 2.3645663,2.1600605 0 0 0 -0.69584,0.308576 9.2251865,8.4273213 0 0 1 -1.98624,0.86403 6.6680775,6.0913705 0 0 1 -1.91532,0.222179 5.837101,5.3322634 0 0 1 -3.63468,-0.984375 4.4926759,4.1041149 0 0 1 -1.31739,-1.428724 4.989235,4.5577274 0 0 1 -0.55735,-2.16006 4.8372272,4.4188665 0 0 1 1.01336,-2.777225 q 1.49308,-1.774327 4.51968,-1.774327 a 6.6917226,6.1129707 0 0 1 1.90519,0.219084 9.5764941,8.7482446 0 0 1 1.98962,0.867109 2.4726609,2.258806 0 0 0 0.69585,0.308583 0.52358256,0.47829909 0 0 0 0.31416,-0.169715 l 0.17916,0.117258 -1.30392,1.851477 -0.18587,-0.117259 a 1.4119839,1.2898646 0 0 0 0,-0.172802 0.54385027,0.49681388 0 0 0 -0.17235,-0.348698 2.8611254,2.613673 0 0 0 -0.60801,-0.394979 5.0669281,4.6287008 0 0 0 -2.57399,-0.644932 3.7664162,3.4406676 0 0 0 -2.55712,0.756015 3.3948419,3.1012296 0 0 0 0,4.628702 3.7664162,3.4406676 0 0 0 2.55712,0.752939 5.0263925,4.5916713 0 0 0 2.57399,-0.644937 2.9861096,2.7278477 0 0 0 0.60801,-0.394981 0.55736207,0.50915709 0 0 0 0.17235,-0.351785 1.2971336,1.1849475 0 0 0 0,-0.169715 z"
     id="path58"
     style="stroke-width:0.322857" />
  <path
     class="cls-2"
     d="m 229.37262,35.979524 v 2.413091 h 6.0229 a 0.46615738,0.42584046 0 0 0 0.31412,-0.08948 0.74990535,0.68504776 0 0 0 0.17916,-0.308583 h 0.21956 v 2.277324 h -0.21956 a 0.74990535,0.68504776 0 0 0 -0.17916,-0.324013 0.46615738,0.42584046 0 0 0 -0.31412,-0.0895 h -8.50571 v -0.206741 a 0.71274786,0.65110388 0 0 0 0.33781,-0.166635 0.49655894,0.45361267 0 0 0 0.0945,-0.308583 v -7.461465 a 0.49655894,0.45361267 0 0 0 -0.0945,-0.308577 0.67559035,0.61716008 0 0 0 -0.33781,-0.169721 v -0.206748 h 8.3402 a 0.43913377,0.40115407 0 0 0 0.31413,-0.0895 0.72288167,0.66036131 0 0 0 0.17916,-0.308576 h 0.21952 v 2.277324 h -0.21952 a 0.69248016,0.63258912 0 0 0 -0.17916,-0.308583 0.43913377,0.40115407 0 0 0 -0.31413,-0.09258 h -5.85739 v 2.089085 h 3.79344 a 0.44926759,0.41041149 0 0 0 0.31414,-0.0895 0.73301557,0.66961865 0 0 0 0.17917,-0.308576 h 0.21954 v 2.227946 h -0.21954 a 0.75328329,0.68813349 0 0 0 -0.17917,-0.308583 0.44926759,0.41041149 0 0 0 -0.31414,-0.09258 z"
     id="path60"
     style="stroke-width:0.322857" />
  <path
     class="cls-2"
     d="m 248.0865,31.782829 -1.11812,2.073662 -0.19259,-0.101831 a 0.76003917,0.6943051 0 0 0 0,-0.104911 c 0,-0.145037 -0.13175,-0.308582 -0.39862,-0.469041 a 4.786558,4.3725793 0 0 0 -2.86448,-0.80231 3.999495,3.6535879 0 0 0 -1.28361,0.169721 1.4795429,1.3515807 0 0 0 -0.65533,0.385725 0.89853522,0.82082292 0 0 0 -0.24998,0.561614 0.76003917,0.6943051 0 0 0 0.63843,0.675791 10.279107,9.3900913 0 0 0 1.41199,0.194406 l 1.07757,0.101831 a 8.4448802,7.7145011 0 0 1 1.55385,0.265374 3.5806292,3.2709485 0 0 1 1.05056,0.469042 2.3814562,2.1754894 0 0 1 0.73976,0.83317 2.7631648,2.5241849 0 0 1 0.27021,1.101625 2.8003219,2.5581286 0 0 1 -0.6384,1.650901 3.4015977,3.1074011 0 0 1 -1.79034,0.972031 6.9214238,6.3228053 0 0 1 -1.9423,0.23761 8.0327698,7.3380335 0 0 1 -3.66173,-0.842425 1.8544957,1.6941044 0 0 0 -0.45939,-0.169722 0.57087388,0.52150027 0 0 0 -0.28036,0.14195 l -0.19935,-0.09566 1.0134,-2.160058 0.19933,0.08948 v 0.08331 a 0.77692895,0.70973411 0 0 0 0.29386,0.533842 3.7360146,3.4128954 0 0 0 1.38158,0.648019 5.8810144,5.3723787 0 0 0 1.77006,0.268468 3.4894243,3.1876319 0 0 0 1.55721,-0.290066 1.5200784,1.3886101 0 0 0 0.56754,-0.42584 1.0133856,0.92574021 0 0 0 0.21279,-0.558527 0.70261404,0.64184652 0 0 0 -0.49997,-0.617166 6.3471717,5.7982191 0 0 0 -1.41196,-0.237608 l -1.05732,-0.104912 a 13.217926,12.074737 0 0 1 -1.50993,-0.191319 3.7157472,3.3943807 0 0 1 -0.87827,-0.308575 2.3138971,2.1137734 0 0 1 -0.97959,-0.870197 2.6280466,2.4007528 0 0 1 -0.33779,-1.203465 2.7023615,2.4686404 0 0 1 0.81745,-1.851484 q 1.06742,-0.962763 3.20906,-0.962763 a 7.0936991,6.4801809 0 0 1 1.68896,0.172802 12.228186,11.170598 0 0 1 1.93558,0.617159 2.0267711,1.8514803 0 0 0 0.48641,0.148117 0.56074001,0.51224289 0 0 0 0.33782,-0.148117 z"
     id="path62"
     style="stroke-width:0.322857" />
</svg>
