<?xml version="1.0" encoding="UTF-8" standalone="no"?>
<!-- Created with Inkscape (http://www.inkscape.org/) -->

<svg
   width="1122.5197"
   height="793.70081"
   viewBox="0 0 297 210"
   version="1.1"
   id="svg5"
   sodipodi:docname="footer_bg.svg"
   inkscape:version="1.1 (c68e22c387, 2021-05-23)"
   xmlns:inkscape="http://www.inkscape.org/namespaces/inkscape"
   xmlns:sodipodi="http://sodipodi.sourceforge.net/DTD/sodipodi-0.dtd"
   xmlns="http://www.w3.org/2000/svg"
   xmlns:svg="http://www.w3.org/2000/svg">
  <sodipodi:namedview
     id="namedview7"
     pagecolor="#505050"
     bordercolor="#eeeeee"
     borderopacity="1"
     inkscape:pageshadow="0"
     inkscape:pageopacity="0"
     inkscape:pagecheckerboard="0"
     inkscape:document-units="px"
     showgrid="false"
     units="px"
     inkscape:zoom="0.50142283"
     inkscape:cx="85.755968"
     inkscape:cy="402.85362"
     inkscape:window-width="1920"
     inkscape:window-height="1000"
     inkscape:window-x="-11"
     inkscape:window-y="-11"
     inkscape:window-maximized="1"
     inkscape:current-layer="layer1" />
  <defs
     id="defs2" />
  <g
     inkscape:label="Layer 1"
     inkscape:groupmode="layer"
     id="layer1">
    <path
       id="rect846"
       style="fill:#ffffff;stroke-width:0.530828"
       d="m -21.118126,215.71176 a 56.340448,40.109923 0 0 1 -4.285006,1.91668 56.340448,40.109923 0 0 1 -11.908314,2.96622 56.340448,40.109923 0 0 1 -12.536699,1.00563 56.340448,40.109923 0 0 1 -11.031378,-0.78032 56.340448,40.109923 0 0 1 -10.603487,-2.3027 56.340448,40.109923 0 0 1 -9.764262,-3.7362 56.340448,40.109923 0 0 1 -8.548315,-5.02554 56.340448,40.109923 0 0 1 -7.000089,-6.11952 61.190954,43.281406 0 0 1 -12.933064,-1.3162 61.190954,43.281406 0 0 1 -12.24318,-3.22874 61.190954,43.281406 0 0 1 -10.99519,-4.9935 61.190954,43.281406 0 0 1 -9.24543,-6.53035 61.190954,43.281406 0 0 1 -7.07451,-7.77058 56.340448,40.109923 0 0 1 -4.80487,7.63829 56.340448,40.109923 0 0 1 -6.92619,6.76186 56.340448,40.109923 0 0 1 -8.74727,5.59191 56.340448,40.109923 0 0 1 -10.18594,4.17752 56.340448,40.109923 0 0 1 -11.18278,2.58176 56.340448,40.109923 0 0 1 -11.69128,0.87385 56.340448,40.109923 0 0 1 -12.14861,-0.94775 56.340448,40.109923 0 0 1 -11.57604,-2.79104 56.340448,40.109923 0 0 1 -10.45776,-4.50206 56.340448,40.109923 0 0 1 -8.84855,-6.0017 50.743717,33.766961 0 0 1 -8.07341,5.6565 50.743717,33.766961 0 0 1 -9.80922,4.27261 50.743717,33.766961 0 0 1 -11.02052,2.66031 50.743717,33.766961 0 0 1 -11.64373,0.90692 50.743717,33.766961 0 0 1 -11.29182,-0.84646 50.743717,33.766961 0 0 1 -10.72493,-2.49753 50.743717,33.766961 0 0 1 -9.62163,-4.02301 50.743717,33.766961 0 0 1 -1.5689,-1.04386 v 84.89973 h 298.492374 z" />
    <path
       id="path1254"
       style="fill:#ffffff;stroke-width:0.530828"
       d="m -37.602213,-41.610653 a 56.340448,40.109923 0 0 0 -7.417649,-2.792595 56.340448,40.109923 0 0 0 -10.6231,-2.252059 61.190954,43.281406 0 0 0 -5.847212,-7.049699 61.190954,43.281406 0 0 0 -7.616587,-6.146911 61.190954,43.281406 0 0 0 -9.114678,-5.023982 61.190954,43.281406 0 0 0 -10.287228,-3.722772 61.190954,43.281406 0 0 0 -11.093381,-2.28823 61.190954,43.281406 0 0 0 -11.503692,-0.772047 61.190954,43.281406 0 0 0 -12.99662,0.988052 61.190954,43.281406 0 0 0 -12.40338,2.917653 61.190954,43.281406 0 0 0 -11.24428,4.714441 61.190954,43.281406 0 0 0 -9.57202,6.296255 61.190954,43.281406 0 0 0 -7.46259,7.590235 61.190954,43.281406 0 0 0 -5.01365,8.538498 56.340448,40.109923 0 0 0 -6.86315,-7.069854 56.340448,40.109923 0 0 0 -8.82117,-5.866308 56.340448,40.109923 0 0 0 -10.37404,-4.394046 56.340448,40.109923 0 0 0 -11.45098,-2.720247 56.340448,40.109923 0 0 0 -12.00185,-0.920875 56.340448,40.109923 0 0 0 -11.93984,0.912088 56.340448,40.109923 0 0 0 -11.39724,2.693376 56.340448,40.109923 0 0 0 -10.33683,4.351155 56.340448,40.109923 0 0 0 -8.80671,5.812049 56.340448,40.109923 0 0 0 -6.87606,7.008873 50.743717,33.766961 0 0 0 -7.47707,-3.765145 50.743717,33.766961 0 0 0 -8.3907,-2.784843 50.743717,33.766961 0 0 0 -9.01702,-1.710489 50.743717,33.766961 0 0 0 -9.33638,-0.577225 50.743717,33.766961 0 0 0 -11.2913,0.84646 50.743717,33.766961 0 0 0 -10.72544,2.497521 50.743717,33.766961 0 0 0 -9.62112,4.023011 50.743717,33.766961 0 0 0 -1.56941,1.044382 V 9.4777007 a 50.743717,33.766961 0 0 0 1.56889,1.0438603 50.743717,33.766961 0 0 0 9.62164,4.02301 50.743717,33.766961 0 0 0 10.72492,2.49752 50.743717,33.766961 0 0 0 11.29182,0.84646 50.743717,33.766961 0 0 0 11.64373,-0.90692 50.743717,33.766961 0 0 0 11.02052,-2.6603 50.743717,33.766961 0 0 0 9.80922,-4.27261 50.743717,33.766961 0 0 0 8.07341,-5.6565003 56.340448,40.109923 0 0 0 8.84856,6.0017003 56.340448,40.109923 0 0 0 10.45776,4.50205 56.340448,40.109923 0 0 0 11.57604,2.79105 56.340448,40.109923 0 0 0 12.14861,0.94774 56.340448,40.109923 0 0 0 11.69127,-0.87385 56.340448,40.109923 0 0 0 11.18279,-2.58175 56.340448,40.109923 0 0 0 10.18593,-4.17752 56.340448,40.109923 0 0 0 8.74728,-5.5919103 56.340448,40.109923 0 0 0 6.92619,-6.7618597 56.340448,40.109923 0 0 0 4.80487,-7.63829 61.190954,43.281406 0 0 0 7.07451,7.77058 61.190954,43.281406 0 0 0 9.24543,6.5303497 61.190954,43.281406 0 0 0 10.99519,4.9935003 61.190954,43.281406 0 0 0 12.24318,3.22874 61.190954,43.281406 0 0 0 12.93306,1.3162 56.340448,40.109923 0 0 0 7.00009,6.11952 56.340448,40.109923 0 0 0 8.548318,5.02553 56.340448,40.109923 0 0 0 9.764263,3.73621 56.340448,40.109923 0 0 0 10.603486,2.3027 56.340448,40.109923 0 0 0 11.031379,0.78032 56.340448,40.109923 0 0 0 12.536702,-1.00563 56.340448,40.109923 0 0 0 11.908309,-2.96622 56.340448,40.109923 0 0 0 4.28501,-1.91668 z" />
    <path
       id="path1252"
       style="fill:#ffffff;stroke-width:0.534313"
       d="M -3.2572085,0.55416983 V 76.499401 a 51.412194,33.766961 0 0 1 1.5900949,-1.04438 51.412194,33.766961 0 0 1 9.7478549,-4.02301 51.412194,33.766961 0 0 1 10.8667427,-2.49752 51.412194,33.766961 0 0 1 11.440047,-0.84646 51.412194,33.766961 0 0 1 9.459374,0.57723 51.412194,33.766961 0 0 1 9.135806,1.71048 51.412194,33.766961 0 0 1 8.501237,2.78485 51.412194,33.766961 0 0 1 7.575569,3.76514 57.082654,40.109923 0 0 1 6.966642,-7.00887 57.082654,40.109923 0 0 1 8.922716,-5.81205 57.082654,40.109923 0 0 1 10.473013,-4.35115 57.082654,40.109923 0 0 1 11.547372,-2.69338 57.082654,40.109923 0 0 1 12.09713,-0.912088 57.082654,40.109923 0 0 1 12.15997,0.920878 57.082654,40.109923 0 0 1 11.60183,2.72024 57.082654,40.109923 0 0 1 10.51071,4.39405 57.082654,40.109923 0 0 1 8.93737,5.86631 57.082654,40.109923 0 0 1 6.95355,7.06985 61.997059,43.281406 0 0 1 5.0797,-8.5385 61.997059,43.281406 0 0 1 7.5609,-7.59023 61.997059,43.281406 0 0 1 9.69813,-6.296256 61.997059,43.281406 0 0 1 11.39241,-4.714441 61.997059,43.281406 0 0 1 12.56676,-2.917653 61.997059,43.281406 0 0 1 13.16784,-0.988052 61.997059,43.281406 0 0 1 11.65523,0.772046 61.997059,43.281406 0 0 1 11.23953,2.288231 61.997059,43.281406 0 0 1 10.42274,3.722772 61.997059,43.281406 0 0 1 9.23475,5.023983 61.997059,43.281406 0 0 1 7.71693,6.14691 61.997059,43.281406 0 0 1 5.92424,7.0497 57.082654,40.109923 0 0 1 10.76304,2.25206 57.082654,40.109923 0 0 1 7.51537,2.79259 V 0.55416983 Z" />
  </g>
</svg>
