<?xml version="1.0" encoding="UTF-8" standalone="no"?>
<!-- Created with Inkscape (http://www.inkscape.org/) -->

<svg
   width="1122.5197"
   height="793.70081"
   viewBox="0 0 297 210"
   version="1.1"
   id="svg5"
   sodipodi:docname="service_bg.svg"
   inkscape:version="1.1 (c68e22c387, 2021-05-23)"
   xmlns:inkscape="http://www.inkscape.org/namespaces/inkscape"
   xmlns:sodipodi="http://sodipodi.sourceforge.net/DTD/sodipodi-0.dtd"
   xmlns="http://www.w3.org/2000/svg"
   xmlns:svg="http://www.w3.org/2000/svg">
  <sodipodi:namedview
     id="namedview7"
     pagecolor="#505050"
     bordercolor="#eeeeee"
     borderopacity="1"
     inkscape:pageshadow="0"
     inkscape:pageopacity="0"
     inkscape:pagecheckerboard="0"
     inkscape:document-units="px"
     showgrid="false"
     units="px"
     inkscape:zoom="0.50142283"
     inkscape:cx="85.755968"
     inkscape:cy="402.85362"
     inkscape:window-width="1920"
     inkscape:window-height="1000"
     inkscape:window-x="-11"
     inkscape:window-y="-11"
     inkscape:window-maximized="1"
     inkscape:current-layer="layer1" />
  <defs
     id="defs2" />
  <g
     inkscape:label="Layer 1"
     inkscape:groupmode="layer"
     id="layer1">
    <path
       id="rect846"
       style="fill:#ffffff;stroke-width:2.00628"
       d="M 1126.75 546.05469 A 212.94028 151.59656 0 0 1 1110.5547 553.29883 A 212.94028 151.59656 0 0 1 1065.5469 564.50977 A 212.94028 151.59656 0 0 1 1018.1641 568.31055 A 212.94028 151.59656 0 0 1 976.4707 565.36133 A 212.94028 151.59656 0 0 1 936.39453 556.6582 A 212.94028 151.59656 0 0 1 899.49023 542.53711 A 212.94028 151.59656 0 0 1 867.18164 523.54297 A 212.94028 151.59656 0 0 1 840.72461 500.41406 A 231.2729 163.58327 0 0 1 791.84375 495.43945 A 231.2729 163.58327 0 0 1 745.57031 483.23633 A 231.2729 163.58327 0 0 1 704.01367 464.36328 A 231.2729 163.58327 0 0 1 669.07031 439.68164 A 231.2729 163.58327 0 0 1 642.33203 410.3125 A 212.94028 151.59656 0 0 1 624.17188 439.18164 A 212.94028 151.59656 0 0 1 597.99414 464.73828 A 212.94028 151.59656 0 0 1 564.93359 485.87305 A 212.94028 151.59656 0 0 1 526.43555 501.66211 A 212.94028 151.59656 0 0 1 484.16992 511.41992 A 212.94028 151.59656 0 0 1 439.98242 514.72266 A 212.94028 151.59656 0 0 1 394.06641 511.14062 A 212.94028 151.59656 0 0 1 350.31445 500.5918 A 212.94028 151.59656 0 0 1 310.78906 483.57617 A 212.94028 151.59656 0 0 1 277.3457 460.89258 A 191.78728 127.62316 0 0 1 246.83203 482.27148 A 191.78728 127.62316 0 0 1 209.75781 498.41992 A 191.78728 127.62316 0 0 1 168.10547 508.47461 A 191.78728 127.62316 0 0 1 124.09766 511.90234 A 191.78728 127.62316 0 0 1 81.419922 508.70312 A 191.78728 127.62316 0 0 1 40.884766 499.26367 A 191.78728 127.62316 0 0 1 4.5195312 484.05859 A 191.78728 127.62316 0 0 1 -1.4101562 480.11328 L -1.4101562 800.99414 L 1126.75 800.99414 L 1126.75 546.05469 z "
       transform="scale(0.26458333)" />
    <path
       id="path1254"
       style="fill:#ffffff;stroke-width:0.530828"
       d="m -37.602213,-41.610653 a 56.340448,40.109923 0 0 0 -7.417649,-2.792595 56.340448,40.109923 0 0 0 -10.6231,-2.252059 61.190954,43.281406 0 0 0 -5.847212,-7.049699 61.190954,43.281406 0 0 0 -7.616587,-6.146911 61.190954,43.281406 0 0 0 -9.114678,-5.023982 61.190954,43.281406 0 0 0 -10.287228,-3.722772 61.190954,43.281406 0 0 0 -11.093381,-2.28823 61.190954,43.281406 0 0 0 -11.503692,-0.772047 61.190954,43.281406 0 0 0 -12.99662,0.988052 61.190954,43.281406 0 0 0 -12.40338,2.917653 61.190954,43.281406 0 0 0 -11.24428,4.714441 61.190954,43.281406 0 0 0 -9.57202,6.296255 61.190954,43.281406 0 0 0 -7.46259,7.590235 61.190954,43.281406 0 0 0 -5.01365,8.538498 56.340448,40.109923 0 0 0 -6.86315,-7.069854 56.340448,40.109923 0 0 0 -8.82117,-5.866308 56.340448,40.109923 0 0 0 -10.37404,-4.394046 56.340448,40.109923 0 0 0 -11.45098,-2.720247 56.340448,40.109923 0 0 0 -12.00185,-0.920875 56.340448,40.109923 0 0 0 -11.93984,0.912088 56.340448,40.109923 0 0 0 -11.39724,2.693376 56.340448,40.109923 0 0 0 -10.33683,4.351155 56.340448,40.109923 0 0 0 -8.80671,5.812049 56.340448,40.109923 0 0 0 -6.87606,7.008873 50.743717,33.766961 0 0 0 -7.47707,-3.765145 50.743717,33.766961 0 0 0 -8.3907,-2.784843 50.743717,33.766961 0 0 0 -9.01702,-1.710489 50.743717,33.766961 0 0 0 -9.33638,-0.577225 50.743717,33.766961 0 0 0 -11.2913,0.84646 50.743717,33.766961 0 0 0 -10.72544,2.497521 50.743717,33.766961 0 0 0 -9.62112,4.023011 50.743717,33.766961 0 0 0 -1.56941,1.044382 V 9.4777007 a 50.743717,33.766961 0 0 0 1.56889,1.0438603 50.743717,33.766961 0 0 0 9.62164,4.02301 50.743717,33.766961 0 0 0 10.72492,2.49752 50.743717,33.766961 0 0 0 11.29182,0.84646 50.743717,33.766961 0 0 0 11.64373,-0.90692 50.743717,33.766961 0 0 0 11.02052,-2.6603 50.743717,33.766961 0 0 0 9.80922,-4.27261 50.743717,33.766961 0 0 0 8.07341,-5.6565003 56.340448,40.109923 0 0 0 8.84856,6.0017003 56.340448,40.109923 0 0 0 10.45776,4.50205 56.340448,40.109923 0 0 0 11.57604,2.79105 56.340448,40.109923 0 0 0 12.14861,0.94774 56.340448,40.109923 0 0 0 11.69127,-0.87385 56.340448,40.109923 0 0 0 11.18279,-2.58175 56.340448,40.109923 0 0 0 10.18593,-4.17752 56.340448,40.109923 0 0 0 8.74728,-5.5919103 56.340448,40.109923 0 0 0 6.92619,-6.7618597 56.340448,40.109923 0 0 0 4.80487,-7.63829 61.190954,43.281406 0 0 0 7.07451,7.77058 61.190954,43.281406 0 0 0 9.24543,6.5303497 61.190954,43.281406 0 0 0 10.99519,4.9935003 61.190954,43.281406 0 0 0 12.24318,3.22874 61.190954,43.281406 0 0 0 12.93306,1.3162 56.340448,40.109923 0 0 0 7.00009,6.11952 56.340448,40.109923 0 0 0 8.548318,5.02553 56.340448,40.109923 0 0 0 9.764263,3.73621 56.340448,40.109923 0 0 0 10.603486,2.3027 56.340448,40.109923 0 0 0 11.031379,0.78032 56.340448,40.109923 0 0 0 12.536702,-1.00563 56.340448,40.109923 0 0 0 11.908309,-2.96622 56.340448,40.109923 0 0 0 4.28501,-1.91668 z" />
    <path
       id="path1252"
       style="fill:#ffffff;stroke-width:0.530828"
       d="m -323.31137,43.822709 v 75.945231 a 50.743717,33.766961 0 0 1 1.56942,-1.04438 50.743717,33.766961 0 0 1 9.62111,-4.02301 50.743717,33.766961 0 0 1 10.72545,-2.49752 50.743717,33.766961 0 0 1 11.2913,-0.84646 50.743717,33.766961 0 0 1 9.33638,0.57723 50.743717,33.766961 0 0 1 9.01702,1.71048 50.743717,33.766961 0 0 1 8.3907,2.78485 50.743717,33.766961 0 0 1 7.47707,3.76514 56.340448,40.109923 0 0 1 6.87606,-7.00887 56.340448,40.109923 0 0 1 8.8067,-5.81205 56.340448,40.109923 0 0 1 10.33684,-4.35115 56.340448,40.109923 0 0 1 11.39723,-2.69338 56.340448,40.109923 0 0 1 11.93984,-0.912088 56.340448,40.109923 0 0 1 12.00186,0.920878 56.340448,40.109923 0 0 1 11.45098,2.72024 56.340448,40.109923 0 0 1 10.37404,4.39405 56.340448,40.109923 0 0 1 8.82117,5.86631 56.340448,40.109923 0 0 1 6.86314,7.06985 61.190954,43.281406 0 0 1 5.01365,-8.5385 61.190954,43.281406 0 0 1 7.46259,-7.59023 61.190954,43.281406 0 0 1 9.57203,-6.296256 61.190954,43.281406 0 0 1 11.24428,-4.714441 61.190954,43.281406 0 0 1 12.40337,-2.917653 61.190954,43.281406 0 0 1 12.996627,-0.988052 61.190954,43.281406 0 0 1 11.50368,0.772046 61.190954,43.281406 0 0 1 11.09339,2.288231 61.190954,43.281406 0 0 1 10.28722,3.722772 61.190954,43.281406 0 0 1 9.11468,5.023983 61.190954,43.281406 0 0 1 7.61659,6.14691 61.190954,43.281406 0 0 1 5.84721,7.0497 56.340448,40.109923 0 0 1 10.6231,2.25206 56.340448,40.109923 0 0 1 7.41765,2.79259 V 43.822709 Z" />
  </g>
</svg>
